<svg xmlns="http://www.w3.org/2000/svg" width="48" height="48" fill="none" viewBox="0 0 48 48"><mask id="a" width="48" height="48" x="0" y="0" maskUnits="userSpaceOnUse" style="mask-type:alpha"><path fill="#D9D9D9" d="M0 0h48v48H0z"/></mask><g mask="url(#a)"><path fill="#5F6368" d="M32 38c-1.2 0-2.358-.142-3.475-.425A13.115 13.115 0 0 1 25.4 36.35c1.933-1.5 3.433-3.325 4.5-5.475A15.262 15.262 0 0 0 31.5 24a15.26 15.26 0 0 0-1.6-6.875c-1.067-2.15-2.567-3.975-4.5-5.475a13.115 13.115 0 0 1 3.125-1.225A14.077 14.077 0 0 1 32 10c3.9 0 7.208 1.358 9.925 4.075C44.642 16.792 46 20.1 46 24c0 3.9-1.358 7.208-4.075 9.925C39.208 36.642 35.9 38 32 38Zm-16 0c-3.9 0-7.208-1.358-9.925-4.075C3.358 31.208 2 27.9 2 24c0-3.9 1.358-7.208 4.075-9.925C8.792 11.358 12.1 10 16 10c1.2 0 2.358.142 3.475.425 1.117.283 2.158.692 3.125 1.225-.433.333-.833.683-1.2 1.05s-.733.75-1.1 1.15a12.431 12.431 0 0 0-2.075-.625A10.834 10.834 0 0 0 16 13c-3.033 0-5.625 1.067-7.775 3.2C6.075 18.333 5 20.933 5 24c0 3.033 1.075 5.625 3.225 7.775C10.375 33.925 12.967 35 16 35c.767 0 1.508-.075 2.225-.225.717-.15 1.408-.358 2.075-.625.367.4.733.783 1.1 1.15.367.367.767.717 1.2 1.05-.967.533-2.008.942-3.125 1.225A14.077 14.077 0 0 1 16 38Zm8-2.5a13.449 13.449 0 0 1-4.425-5A13.967 13.967 0 0 1 18 24c0-2.3.525-4.467 1.575-6.5a13.449 13.449 0 0 1 4.425-5c1.9 1.3 3.375 2.967 4.425 5A13.967 13.967 0 0 1 30 24c0 2.3-.525 4.467-1.575 6.5a13.449 13.449 0 0 1-4.425 5Z"/></g></svg>