<svg xmlns="http://www.w3.org/2000/svg" width="48" height="48" fill="none" viewBox="0 0 48 48"><mask id="a" width="48" height="48" x="0" y="0" maskUnits="userSpaceOnUse" style="mask-type:alpha"><path fill="#D9D9D9" d="M0 0h48v48H0z"/></mask><g mask="url(#a)"><path fill="#5F6368" d="M38.33 17.3c-1.853 0-3.472-.583-4.855-1.75-1.383-1.167-2.258-2.633-2.625-4.4H17.1a7.425 7.425 0 0 1-2.075 3.875A7.425 7.425 0 0 1 11.15 17.1v13.75c1.767.367 3.233 1.24 4.4 2.62 1.167 1.38 1.75 3.007 1.75 4.88 0 2.133-.749 3.942-2.247 5.425C13.555 45.258 11.753 46 9.65 46c-2.133 0-3.942-.742-5.425-2.225C2.742 42.292 2 40.477 2 38.331c0-1.854.583-3.473 1.75-4.856s2.633-2.258 4.4-2.625V17.1c-1.767-.367-3.233-1.233-4.4-2.6C2.583 13.133 2 11.5 2 9.6c0-2.09.744-3.88 2.232-5.367C5.721 2.744 7.51 2 9.6 2c1.9 0 3.533.583 4.9 1.75 1.367 1.167 2.233 2.633 2.6 4.4h13.75c.367-1.767 1.24-3.233 2.62-4.4C34.85 2.583 36.477 2 38.35 2c2.133 0 3.942.742 5.425 2.225C45.258 5.708 46 7.508 46 9.625c0 2.117-.742 3.925-2.225 5.425s-3.298 2.25-5.444 2.25ZM9.587 43c1.296 0 2.406-.45 3.329-1.35.923-.9 1.385-1.978 1.385-3.236 0-1.296-.462-2.406-1.385-3.329S10.882 33.7 9.585 33.7c-1.257 0-2.335.462-3.235 1.385-.9.923-1.35 2.033-1.35 3.33 0 1.257.45 2.335 1.35 3.235.9.9 1.979 1.35 3.236 1.35Zm0-28.7c1.296 0 2.406-.46 3.329-1.38.923-.92 1.385-2.027 1.385-3.32 0-1.265-.462-2.348-1.385-3.248C11.992 5.45 10.882 5 9.585 5 8.329 5 7.25 5.45 6.35 6.351 5.45 7.252 5 8.335 5 9.6c0 1.293.45 2.4 1.35 3.32.9.92 1.979 1.38 3.236 1.38ZM38.4 46c-2.118 0-3.93-.744-5.438-2.233C31.454 42.28 30.7 40.49 30.7 38.4c0-2.117.752-3.93 2.256-5.438 1.505-1.508 3.313-2.262 5.425-2.262 2.113 0 3.91.752 5.394 2.256C45.258 34.462 46 36.27 46 38.381c0 2.113-.744 3.91-2.233 5.394C42.28 45.258 40.49 46 38.4 46Zm0-3c1.265 0 2.348-.45 3.248-1.35.901-.9 1.352-1.978 1.352-3.236 0-1.296-.45-2.406-1.352-3.329-.9-.923-1.983-1.385-3.248-1.385-1.293 0-2.4.462-3.32 1.385-.92.923-1.38 2.033-1.38 3.33 0 1.257.46 2.335 1.38 3.235.92.9 2.027 1.35 3.32 1.35Zm0-28.7c1.265 0 2.348-.46 3.248-1.38C42.55 12 43 10.892 43 9.6c0-1.265-.45-2.348-1.352-3.248C40.748 5.45 39.666 5 38.4 5c-1.293 0-2.4.45-3.32 1.351-.92.901-1.38 1.984-1.38 3.249 0 1.293.46 2.4 1.38 3.32.92.92 2.027 1.38 3.32 1.38Z"/></g></svg>