<svg xmlns="http://www.w3.org/2000/svg" width="48" height="48" fill="none" viewBox="0 0 48 48"><mask id="a" width="48" height="48" x="0" y="0" maskUnits="userSpaceOnUse" style="mask-type:alpha"><path fill="#D9D9D9" d="M0 0h48v48H0z"/></mask><g mask="url(#a)"><path fill="#5F6368" d="M19.85 21.8c.553 0 1.016-.187 1.39-.56.373-.374.56-.837.56-1.39 0-.553-.187-1.016-.56-1.39-.374-.373-.837-.56-1.39-.56-.553 0-1.016.187-1.39.56-.373.374-.56.837-.56 1.39 0 .553.187 1.016.56 1.39.374.373.837.56 1.39.56Zm0 8.35c.553 0 1.016-.187 1.39-.56.373-.374.56-.837.56-1.39 0-.553-.187-1.016-.56-1.39-.374-.373-.837-.56-1.39-.56-.553 0-1.016.187-1.39.56-.373.374-.56.837-.56 1.39 0 .553.187 1.016.56 1.39.374.373.837.56 1.39.56Zm-6.45-9.1c.32 0 .6-.12.84-.36s.36-.52.36-.84c0-.32-.12-.6-.36-.84s-.52-.36-.84-.36c-.32 0-.6.12-.84.36s-.36.52-.36.84c0 .32.12.6.36.84s.52.36.84.36Zm6.428 14.8c.315 0 .597-.12.847-.36s.375-.52.375-.84c0-.32-.122-.6-.364-.84a1.171 1.171 0 0 0-.85-.36c-.324 0-.603.12-.836.36-.233.24-.35.52-.35.84 0 .32.118.6.354.84.235.24.51.36.824.36ZM13.4 29.4c.32 0 .6-.12.84-.36s.36-.52.36-.84c0-.32-.12-.6-.36-.84s-.52-.36-.84-.36c-.32 0-.6.12-.84.36s-.36.52-.36.84c0 .32.12.6.36.84s.52.36.84.36Zm6.45-14.8c.32 0 .6-.12.84-.36s.36-.52.36-.84c0-.32-.12-.6-.36-.84s-.52-.36-.84-.36c-.32 0-.6.12-.84.36s-.36.52-.36.84c0 .32.12.6.36.84s.52.36.84.36Zm8.35 7.2c.553 0 1.016-.187 1.39-.56.373-.374.56-.837.56-1.39 0-.553-.187-1.016-.56-1.39-.374-.373-.837-.56-1.39-.56-.553 0-1.016.187-1.39.56-.373.374-.56.837-.56 1.39 0 .553.187 1.016.56 1.39.374.373.837.56 1.39.56Zm0-7.2c.32 0 .6-.12.84-.36s.36-.52.36-.84c0-.32-.12-.6-.36-.84s-.52-.36-.84-.36c-.32 0-.6.12-.84.36s-.36.52-.36.84c0 .32.12.6.36.84s.52.36.84.36Zm6.45 14.8c.32 0 .6-.12.84-.36s.36-.52.36-.84c0-.32-.12-.6-.36-.84s-.52-.36-.84-.36c-.32 0-.6.12-.84.36s-.36.52-.36.84c0 .32.12.6.36.84s.52.36.84.36Zm0-8.35c.32 0 .6-.12.84-.36s.36-.52.36-.84c0-.32-.12-.6-.36-.84s-.52-.36-.84-.36c-.32 0-.6.12-.84.36s-.36.52-.36.84c0 .32.12.6.36.84s.52.36.84.36ZM24 44c-2.767 0-5.367-.525-7.8-1.575-2.433-1.05-4.55-2.475-6.35-4.275-1.8-1.8-3.225-3.917-4.275-6.35C4.525 29.367 4 26.767 4 24c0-2.767.525-5.367 1.575-7.8 1.05-2.433 2.475-4.55 4.275-6.35 1.8-1.8 3.917-3.225 6.35-4.275C18.633 4.525 21.233 4 24 4c2.767 0 5.367.525 7.8 1.575 2.433 1.05 4.55 2.475 6.35 4.275 1.8 1.8 3.225 3.917 4.275 6.35C43.475 18.633 44 21.233 44 24c0 2.767-.525 5.367-1.575 7.8-1.05 2.433-2.475 4.55-4.275 6.35-1.8 1.8-3.917 3.225-6.35 4.275C29.367 43.475 26.767 44 24 44Zm.025-3c4.683 0 8.683-1.658 12-4.975C39.342 32.708 41 28.7 41 24s-1.658-8.708-4.975-12.025C32.708 8.658 28.708 7 24.025 7S15.333 8.658 12 11.975C8.667 15.292 7 19.3 7 24s1.667 8.708 5 12.025S19.342 41 24.025 41Zm4.175-5.15c.32 0 .6-.12.84-.36s.36-.52.36-.84c0-.32-.12-.6-.36-.84s-.52-.36-.84-.36c-.32 0-.6.12-.84.36s-.36.52-.36.84c0 .32.12.6.36.84s.52.36.84.36Zm0-5.7c.553 0 1.016-.187 1.39-.56.373-.374.56-.837.56-1.39 0-.553-.187-1.016-.56-1.39-.374-.373-.837-.56-1.39-.56-.553 0-1.016.187-1.39.56-.373.374-.56.837-.56 1.39 0 .553.187 1.016.56 1.39.374.373.837.56 1.39.56Z"/></g></svg>